<?xml version="1.0" standalone="no"?>
<!DOCTYPE svg PUBLIC "-//W3C//DTD SVG 20010904//EN"
 "http://www.w3.org/TR/2001/REC-SVG-20010904/DTD/svg10.dtd">
<svg version="1.0" xmlns="http://www.w3.org/2000/svg"
 width="500.000000pt" height="432.000000pt" viewBox="0 0 500.000000 432.000000"
 preserveAspectRatio="xMidYMid meet">

<g transform="translate(0.000000,432.000000) scale(0.100000,-0.100000)"
fill="#60a5fa" stroke="none">
<path d="M1430 4253 c-14 -2 -149 -26 -300 -53 -322 -58 -407 -69 -590 -75
-74 -2 -138 -4 -142 -4 -5 -1 -8 -820 -8 -1821 0 -1548 2 -1820 14 -1820 8 0
112 41 232 91 608 254 834 322 1074 322 233 0 385 -65 623 -264 l37 -31 0
1675 0 1676 -65 57 c-132 117 -277 198 -419 234 -66 17 -109 20 -255 19 -97
-1 -187 -4 -201 -6z"/>
<path d="M3105 4254 c-195 -48 -331 -120 -457 -242 l-68 -65 0 -1675 0 -1674
61 54 c133 117 234 177 369 220 107 33 328 33 480 0 157 -35 479 -145 813
-280 187 -75 300 -115 303 -108 2 6 3 828 2 1826 l-3 1815 -95 2 c-183 5 -356
24 -649 75 -286 49 -303 51 -516 54 -121 1 -229 1 -240 -2z"/>
<path d="M97 4116 c-48 -18 -62 -29 -81 -70 -14 -31 -16 -213 -16 -1890 0
-2039 -4 -1900 61 -1947 l34 -24 907 -3 908 -2 0 -43 c0 -51 28 -100 69 -122
45 -23 997 -23 1042 0 41 22 69 71 69 122 l0 43 908 2 909 3 36 28 c24 18 40
41 47 66 7 26 9 635 8 1897 l-3 1859 -23 32 c-26 37 -99 68 -137 59 l-25 -6 0
-1865 0 -1865 -2310 0 -2310 0 0 1864 c0 1690 -1 1864 -16 1870 -22 8 -33 7
-77 -8z"/>
</g>
</svg>
